# xmcd CD database file
#
# Track frame offsets:
#	150
#	17821
#	34217
#	46368
#	62780
#	79795
#	100212
#	120151
#	139227
#	159397
#	173832
#	187671
#	205608
#	230656
#	252308
#	268675
#	282738
#
# Disc length: 3976 seconds
#
# Revision: 0
# Processed by: cddbd v1.4PL0 Copyright (c) Steve Scherf et al.
# Submitted via: CDex 1.50beta10
#
DISCID=ea0f8611
DTITLE=Ann Armstrong - I Go To Pieces
DYEAR=1900
DGENRE=Jazz
TTITLE0=Reasons for Leaving
TTITLE1=Lee's in Love
TTITLE2=Just Dance
TTITLE3=Free Ride and the Fat Lady
TTITLE4=Texas Moon
TTITLE5=Caress Me Baby
TTITLE6=Heart Full of Ashes
TTITLE7=I Go to Pieces
TTITLE8=You Won't Call
TTITLE9=Crazy
TTITLE10=Built for Comfort
TTITLE11=River Run
TTITLE12=I Want You
TTITLE13=Love Me
TTITLE14=Listen to the Radio
TTITLE15=Gone So Far
TTITLE16=Keys to the Highway
EXTD=
EXTT0=
EXTT1=
EXTT2=
EXTT3=
EXTT4=
EXTT5=
EXTT6=
EXTT7=
EXTT8=
EXTT9=
EXTT10=
EXTT11=
EXTT12=
EXTT13=
EXTT14=
EXTT15=
EXTT16=
PLAYORDER=
